<?xml version="1.0" encoding="UTF-8"?>
<!DOCTYPE svg PUBLIC "-//W3C//DTD SVG 1.1//EN" "http://www.w3.org/Graphics/SVG/1.1/DTD/svg11.dtd">
<!-- Creator: CorelDRAW 2020 (64-Bit) -->
<svg xmlns="http://www.w3.org/2000/svg" xml:space="preserve" width="1807px" height="1805px" version="1.1" style="shape-rendering:geometricPrecision; text-rendering:geometricPrecision; image-rendering:optimizeQuality; fill-rule:evenodd; clip-rule:evenodd"
viewBox="0 0 511.93 511.29"
 xmlns:xlink="http://www.w3.org/1999/xlink"
 xmlns:xodm="http://www.corel.com/coreldraw/odm/2003">
 <defs>
  <style type="text/css">
   <![CDATA[
    .fil0 {fill:#9AA0A5}
   ]]>
  </style>
 </defs>
 <g id="Capa_x0020_1">
  <metadata id="CorelCorpID_0Corel-Layer"/>
  <path class="fil0" d="M186.8 60.65c45.79,0 82.88,16.13 110.78,54.14 4.87,6.64 8.02,12.46 12.05,20.27 2.94,5.7 2.05,4.53 4.09,11.21 6.01,19.65 7.4,13.54 7.4,45.3 0,11.26 -0.65,18.18 -1.92,28.69 -1.54,12.86 -16.15,43.03 -25.69,52.52 -4.16,4.13 -4.4,5.09 -7.81,9.2 -3.1,3.73 -4.58,3.93 -8.28,7.02 -16.98,14.16 -1.16,4.44 -28.22,19.38 -23.54,12.99 -40.63,12.42 -67.5,12.42 -24.8,0 -22.85,-3.01 -38.4,-7.51 -17.12,-4.95 -36.51,-20.64 -48.77,-32.85 -21.66,-21.57 -37.53,-61.92 -35.06,-91.96 1.48,-17.99 3.63,-34.73 11.93,-51.09 1.88,-3.71 2.67,-7.09 4.58,-10.73l21.18 -28.13c3.61,-3.98 12.13,-9.57 17.04,-13.56 17.3,-14.09 47.84,-24.32 72.6,-24.32zm124.12 283.95c17.32,0 5.09,13.86 15.72,26.78l122.43 122.42c20.92,20.92 20.23,25.87 44.3,-0.75 21.21,-23.46 27.74,-17.32 0.76,-44.31l-122.67 -122.18c-16.25,-11.19 -43.65,1.58 -19.45,-30.98 16.44,-22.11 26.61,-59.37 29.87,-85.76 2.29,-18.56 0.58,-23.74 -1.25,-40.35 -0.68,-6.17 -1.18,-13.06 -2.36,-19.74 -1.75,-9.92 -10.69,-32.7 -15.53,-42.29 -9.21,-18.27 -29.27,-49.17 -44.31,-59.4 -31.77,-21.6 -14.89,-15.03 -57.39,-34.43 -5.93,-2.71 -28.82,-10.07 -35.23,-10.67 -10.97,-1.04 -31.92,-3.94 -41.38,-2.59 -31.71,4.54 -43.28,3.26 -74.36,17.58 -16.85,7.76 -27.25,13.86 -41.78,26.23 -24.17,20.55 -31.4,30.61 -46.16,57.56 -14.6,26.66 -7.25,16.74 -16.55,41.26 -6.6,17.41 -6.65,63.64 -3.73,83.91 2.92,20.26 21.99,61.4 35.28,78.64l21.37 24.54c41.81,32.8 18.09,14.54 55.49,36.33 11.64,6.77 39.58,12.83 55.68,14.03 29.28,2.19 47.95,3.55 78.56,-6.71 18.09,-6.06 31.24,-10.78 46.72,-21.29 4.76,-3.24 9.44,-7.83 15.97,-7.83z"/>
 </g>
</svg>
