<?xml version="1.0" encoding="UTF-8"?>
<!DOCTYPE svg PUBLIC "-//W3C//DTD SVG 1.1//EN" "http://www.w3.org/Graphics/SVG/1.1/DTD/svg11.dtd">
<!-- Creator: CorelDRAW 2020 (64-Bit) -->
<svg xmlns="http://www.w3.org/2000/svg" xml:space="preserve" width="1494px" height="1494px" version="1.1" style="shape-rendering:geometricPrecision; text-rendering:geometricPrecision; image-rendering:optimizeQuality; fill-rule:evenodd; clip-rule:evenodd"
viewBox="0 0 427.11 427.1"
 xmlns:xlink="http://www.w3.org/1999/xlink"
 xmlns:xodm="http://www.corel.com/coreldraw/odm/2003">
 <defs>
  <style type="text/css">
   <![CDATA[
    .fil0 {fill:#5E6267}
   ]]>
  </style>
 </defs>
 <g id="Capa_x0020_1">
  <metadata id="CorelCorpID_0Corel-Layer"/>
  <g id="_2297027067280">
   <path class="fil0" d="M160.88 206.8c0,14.31 -1.59,40 9.3,50.19 2.98,2.78 3.21,2.01 6.96,4.1 12.7,7.09 28.86,5.2 43.23,5.2 46.66,0 45.65,-19.51 45.65,-59.49 0,-12.71 -0.04,-20.15 -5.19,-29.39l-1.43 -2.72c-1.77,-3.26 0.57,-0.76 -2.68,-4.24 -12.37,-13.24 -67.24,-11.09 -78.71,-4.63l-3.6 1.94c-3.09,1.67 -0.92,-0.61 -4.22,2.7 -2.2,2.19 -1.42,1.86 -2.23,3.3 -0.72,1.27 -0.94,1.95 -1.89,3.65 -5.25,9.43 -5.19,16.62 -5.19,29.39z"/>
   <path class="fil0" d="M160.88 47.7c0,18.48 -1.02,28.32 6.38,43.42 8.79,17.91 43.99,13.3 64.17,13.3 13.3,0 12.45,-1.42 22.37,-6.69 5.35,-2.84 2.41,0.15 5.4,-5.67 9.29,-18.14 7.41,-41.8 5.6,-62.51 -1,-11.44 -0.82,-6.11 -4.67,-14.7 -4.29,-9.57 -14.23,-14.19 -25.93,-14.19 -22.59,0 -58.88,-5.13 -67.04,13.2 -5.42,12.18 -6.28,14.75 -6.28,33.84z"/>
   <path class="fil0" d="M322.74 32.48c0,20.65 -4.03,50.52 8.69,63.25 12.66,12.66 42.78,8.69 63.25,8.69 8.05,0 20.4,-5.43 23.33,-8.49 0.14,-0.15 5.47,-9.14 5.67,-9.54 4.25,-8.56 4.88,-58.13 0,-67.68l-11.63 -13.28c-0.95,-0.46 -2.02,-1.08 -2.71,-1.44 -10.98,-5.78 -37.33,-3.33 -54.78,-3.33 -4.73,0 -9.33,0.81 -12.84,2.37l-10.68 5.93c-2.28,2.28 -0.71,0.89 -2.48,4.44 -3.22,6.43 -5.82,8.35 -5.82,19.08z"/>
   <path class="fil0" d="M0.39 33.87c0,19.4 -3.09,48.03 8.04,61.14 11.05,13.03 45.34,9.41 63.9,9.41 18.39,0 31.82,-13.5 31.82,-31.82 0,-27.71 3.47,-41.1 -5.37,-58.27 -3.44,-6.69 -1.35,-5.2 -12.67,-10.84 -9.33,-4.65 -39.29,-2.83 -52.51,-2.83 -20.5,0 -33.21,12.7 -33.21,33.21z"/>
   <path class="fil0" d="M0.39 195.73c0,13.45 -1.69,41.85 3.19,52.16 0.47,0.98 1.49,2.64 1.99,3.54l0.95 1.82c0.2,0.36 0.74,1.45 0.96,1.8 8.56,13.08 34.21,9.03 43.52,10.44 11.8,1.79 26.82,0.88 37.05,-4.24 10.43,-5.23 6.02,-1.4 11.21,-10.92 7.85,-14.41 4.89,-33.55 4.89,-55.98 0,-27.91 -22.18,-33.21 -45.65,-33.21l-29.2 1.24c-10.61,0.9 -18.41,4.27 -23.24,12.73 -1.04,1.81 -0.73,1 -2.12,3.41 -2.8,4.87 -3.55,10.13 -3.55,17.21z"/>
   <path class="fil0" d="M322.74 195.73c0,22.91 -3.07,43.36 6.41,58.62 2.84,4.58 4.08,4.11 8.78,6.43 3.21,1.59 6.68,4.12 11.1,4.12l51.19 0c4.39,0 16.84,-6.11 19.37,-9.68 9.96,-14.05 6.91,-40.37 6.91,-60.87 0,-9.22 -2.8,-14.46 -7.33,-21.72 -2.95,-4.72 -0.43,-2.01 -5.97,-5.1 -13.32,-7.44 -26.93,-6.39 -44.8,-6.39 -8.02,0 -11.31,0.6 -18.05,1.33 -7.88,0.85 -16.87,4.34 -20.51,9.92l-3.55 6.13c-2.81,4.87 -3.55,10.13 -3.55,17.21z"/>
   <path class="fil0" d="M162.26 349.3l0 51.18c0,15.81 16.91,26.29 37.35,26.29 21.85,0 65.03,5.55 65.03,-29.05l0 -48.42c0,-5.75 -5.32,-16.43 -9.91,-19.15 -0.99,-0.59 -2.73,-1.15 -4.63,-2.29 -13.11,-7.86 -33.43,-4.85 -54.64,-4.85 -9.98,0 -22.18,4.3 -26.29,9.68 -0.46,0.61 -2.28,4.47 -2.79,5.51 -1.59,3.22 -4.12,6.66 -4.12,11.1z"/>
   <path class="fil0" d="M324.13 347.91l0 53.96c0,4.8 2.47,7.55 4.28,10.93 10.28,19.2 43.18,13.45 60.74,12.58 14.4,-0.71 27.26,1.03 34.64,-17.92 3.38,-8.68 2.71,-34.63 2.71,-45.71 0,-12.78 -2.59,-27.32 -12.84,-32.81 -3.29,-1.77 -8.1,-4.55 -12.06,-4.55l-53.96 0c-4.77,0 -5,1.22 -8.08,2.99 -2.83,1.62 -6.13,2.57 -8.11,4.34 -2.3,2.06 -7.32,12.23 -7.32,16.19z"/>
   <path class="fil0" d="M1.78 350.68c0,18.93 -3.68,57.28 7.34,67.36 2.7,2.47 0.18,0.37 3.4,2.14 0.28,0.15 0.64,0.31 0.92,0.46l3.6 1.93c9.53,4.8 61.46,4.29 69.55,0.47 3.25,-1.53 1.23,-0.68 3.6,-1.93 0.28,-0.15 0.64,-0.32 0.92,-0.47l3.55 -1.98c2.71,-2.08 8.11,-12.22 8.11,-16.79l0 -56.72c0,-4.33 -0.79,-1.48 -3.36,-6.32l-2.71 -5.6c-9.37,-13.88 -41.26,-8.68 -63.12,-8.86 -13.08,-0.1 -10.15,-0.55 -20.14,4.77l-2.73 1.42c-4.53,3.11 -8.93,14.15 -8.93,20.12z"/>
  </g>
 </g>
</svg>
