<?xml version="1.0" encoding="UTF-8"?>
<!DOCTYPE svg PUBLIC "-//W3C//DTD SVG 1.1//EN" "http://www.w3.org/Graphics/SVG/1.1/DTD/svg11.dtd">
<!-- Creator: CorelDRAW 2020 (64-Bit) -->
<svg xmlns="http://www.w3.org/2000/svg" xml:space="preserve" width="1440px" height="2054px" version="1.1" style="shape-rendering:geometricPrecision; text-rendering:geometricPrecision; image-rendering:optimizeQuality; fill-rule:evenodd; clip-rule:evenodd"
viewBox="0 0 645.49 920.39"
 xmlns:xlink="http://www.w3.org/1999/xlink"
 xmlns:xodm="http://www.corel.com/coreldraw/odm/2003">
 <defs>
  <style type="text/css">
   <![CDATA[
    .fil3 {fill:#34A853}
    .fil0 {fill:#4285F4}
    .fil12 {fill:#75A7F8}
    .fil18 {fill:#7E7F47}
    .fil8 {fill:#80C993}
    .fil5 {fill:#90B7F8}
    .fil4 {fill:#BCD4FA}
    .fil30 {fill:#C9DCFC}
    .fil10 {fill:#C9E6D0}
    .fil1 {fill:#EA4436}
    .fil34 {fill:#EB8C73}
    .fil42 {fill:#ED5E52}
    .fil43 {fill:#ED6156}
    .fil41 {fill:#EE7166}
    .fil29 {fill:#EF6D61}
    .fil17 {fill:#EF771C}
    .fil16 {fill:#F0766B}
    .fil39 {fill:#F07C73}
    .fil36 {fill:#F08278}
    .fil6 {fill:#F1847A}
    .fil25 {fill:#F2867D}
    .fil28 {fill:#F28A81}
    .fil44 {fill:#F3948C}
    .fil27 {fill:#F4A39C}
    .fil2 {fill:#F4B502}
    .fil33 {fill:#F5A7A0}
    .fil35 {fill:#F5AAA4}
    .fil11 {fill:#F6B1AD}
    .fil20 {fill:#F7B6B1}
    .fil19 {fill:#F7CD57}
    .fil31 {fill:#F8C6C2}
    .fil14 {fill:#F8CD55}
    .fil7 {fill:#F9CECB}
    .fil9 {fill:#F9D97C}
    .fil21 {fill:#FAD1CE}
    .fil24 {fill:#FAD3C9}
    .fil26 {fill:#FADDDB}
    .fil13 {fill:#FBD9D6}
    .fil23 {fill:#FBE3BC}
    .fil40 {fill:#FBE4A3}
    .fil15 {fill:#FBEDC4}
    .fil37 {fill:#FCE4E1}
    .fil32 {fill:#FCE9B4}
    .fil22 {fill:#FCEBBB}
    .fil38 {fill:#FEF7E2}
   ]]>
  </style>
 </defs>
 <g id="Capa_x0020_1">
  <metadata id="CorelCorpID_0Corel-Layer"/>
  <g id="_2297094474592">
   <path class="fil0" d="M223.19 49.5c-11.52,8.96 -23.73,29.34 -28.33,48.38 -10.35,42.78 -7.83,19.29 -7.83,70.79 0.01,40.31 -2.73,297.67 1.23,314.43 1.94,8.21 3.44,5.82 5.68,13.25 1.91,6.32 1.14,10.77 3.34,16.69 3.17,8.51 10.42,18.36 15.14,24.27 5.98,7.49 11.03,14.25 18.76,20.86 15.91,13.62 15.15,8.73 19.9,17.44 19.81,2.07 10.38,2.09 21.48,7.29 6.74,3.15 14.62,2.86 21.38,4.76 48.93,13.8 28.33,3.1 64.22,-1.64 21,-2.77 8.35,-0.79 29.84,-10.26 9.82,-4.33 0.3,0.78 7.71,-5.44 31.15,-26.11 31.64,-25.73 48.84,-56.13 4.19,-7.39 2.8,-12.93 5.53,-20.96 9.22,-27.12 5.99,-65.3 5.99,-98.92 0,-46.12 2.6,-226.11 -0.43,-262.81 -0.9,-10.89 -2.98,-13.14 -5.43,-20.18 -5.75,-16.53 -2.24,-29.01 -25.77,-53.29l-23.15 -27.33c-10.64,1.68 -4.23,0.61 -11.06,-3.63 -4.53,-2.8 -6.21,-2.77 -10.59,-5.14 -13.03,-7.05 -3.98,-5.05 -23.19,-7.98 -16.34,-2.5 -28.19,-13.78 -51.72,-5.05 -12.91,4.8 -5.95,3.63 -23.8,6.06 -14.73,1.99 -7.3,4.1 -20.84,9.44 -9.39,3.71 -6.08,2.73 -18.73,12.28 -7.77,5.86 -7.68,9.77 -18.17,12.82z"/>
   <path class="fil1" d="M459.82 645.85l-1.87 6.38 -7.34 1.1c-9.51,1.98 -6.97,0.5 -9.67,8.54 -4.31,0.38 -8.85,0.38 -12.98,1.7 -13.83,4.43 5.44,4.28 -31.2,10.74 -5.67,1.56 -5.97,3.07 -12.8,4.79 -5.72,1.44 -10.6,1.7 -16.8,3.07 -10.54,2.32 -20.4,5.16 -33.48,5.89 -14.21,0.78 -47.39,-1.63 -60.68,-6.96 -5.3,-2.13 -4.25,-1.91 -7.18,-4.41l-3.54 1.46c-10.13,-0.41 -6.31,-0.59 -15.09,-3.62 -5.62,-1.93 -10.69,-2.56 -16.55,-3.33 -5.49,-5.3 -4.63,-4.88 -11.14,-9.64 -8.86,3.32 -5.88,1.88 -12.34,-2.69l-24.51 -15.11 -1.28 -6.89c-5.39,-4.4 -4.81,-4.22 -9.3,-9.34 -8.42,-2.26 -6.12,-1.37 -11.18,-7.67l-21.06 23.15c-2.58,2.62 -3.5,2.55 -7.12,5.77l-17.4 17.87c-9.71,9.86 -7.46,4.56 -10.2,13.29 1.79,9.05 0.92,3.44 6.32,8.81l7.68 7.72c0.41,0.39 4.33,4.29 4.41,4.36l29.08 21.03c7.39,4.74 3.2,2.1 8.86,6.7 8.07,6.56 24.62,12.17 28.87,14.37l19.9 8.67c10.63,4.85 -1.19,1.96 9.66,5.37 11.63,3.65 15.6,-0.51 32.64,13.53l1.22 -0.65 19.16 0.9c1.13,0.9 2.63,4.58 2.65,4.6l2.08 -0.23c13.33,-0.58 29.45,2.4 45,2.27 15.57,-0.13 28.3,-2.92 42.81,-2.72 1.98,-11.85 20.79,-4.83 33.12,-9.1 7.13,-2.47 2.38,-3.78 12.67,-6.07 7,-1.55 12.77,-0.58 20.09,-3.07l41.46 -19.08c9.25,-6.13 3.8,-8.11 16.05,-5.95l22.42 -17.05 2.71 -4.24c5.19,-6.75 16.93,-15.65 24.35,-16.22l-0.72 0.66c4.18,-9.96 4.02,-7.89 12.86,-11.17 2.14,-5.58 2.52,-2.38 5.28,-7.65 2.39,-8.01 1.9,-8.87 10.07,-9.77l0.45 -6.43c5.67,-3.76 6,-1.61 7.99,-9.9l1.24 -8.1 7.83 -3.54c3.83,-9.59 4.71,-4.75 8.97,-13.33 1.66,-3.33 1.16,-4.28 3.44,-7.32 5.12,-6.84 3.83,-3.58 6.65,-4.87 -1.36,-10.8 1.45,-13.89 8.5,-22.19l3.02 -3.19 -1.02 -1.11c0.25,-12.76 1.52,-8.04 5.31,-16.59 4.97,-11.2 -1.78,-6.15 8,-26.58l5.03 -13.25c-6.6,-18.57 8.2,-45.58 4.55,-66.69l-81.87 0.65c-2.41,10.59 -1.11,22.3 -1.9,33.26l-23.7 72.32c-0.24,0.38 -0.61,0.9 -0.84,1.28l-20.04 30.7c-2.44,2.95 -1.34,2.07 -3.79,4.85l-16.95 18.17c-1.69,1.68 -2.46,2.06 -4.77,4.09l-22.09 17.66z"/>
   <path class="fil2" d="M22.36 565.52c7.7,4.37 7.92,6.58 9.66,12 4.61,14.32 3.06,6.54 7.85,15.98 6.53,12.86 0.72,8.16 16.24,30.16 26.5,37.57 10.45,14.13 41.85,52.54l4.03 0.86c1.75,-12.84 16.49,-21.55 25.13,-31.4 8.07,-9.21 19.5,-23.12 31,-26.81l-2.34 -9.58 -1.06 -1.23 -19.36 -17.9c-0.28,-0.34 -0.74,-0.79 -1.02,-1.12 -22.44,-26.16 -5.86,-8.78 -21.06,-31.46 -3.51,-5.25 -2.47,-5.55 -4.67,-11.23 -4.58,-11.8 -8.65,-8.59 -7.64,-26.56l1.66 -2.69c-15.98,-7.57 -7.22,-21.48 -11.14,-53.83 -10.13,-2.71 -75.35,-2.75 -85.28,0.05 -2.5,20.58 4.76,40.49 6.26,53.5 4.44,38.55 11.91,29.42 9.89,48.72z"/>
   <path class="fil3" d="M364.9 781.3l-85.52 0.5 0.3 130.32c12.76,3.37 67.99,1.37 84.53,1.22l0.69 -132.04z"/>
   <path class="fil4" d="M416.37 560.8c-7.68,3.8 -2.96,1.56 -8.91,5.84 -2.98,2.14 -3.68,2.72 -7.4,5.63 -7.28,5.69 -8.24,5.02 -16.69,9.63 -24.6,13.4 -66.46,21.3 -93.2,11.84 -14.28,-5.05 -30.58,-7.29 -39.09,-18.13 -4.75,-8.71 -3.99,-3.82 -19.9,-17.44 -7.73,-6.61 -12.78,-13.37 -18.76,-20.86 -4.72,-5.91 -11.97,-15.76 -15.14,-24.27 -2.2,-5.92 -1.43,-10.37 -3.34,-16.69 -2.24,-7.43 -3.74,-5.04 -5.68,-13.25 -3.96,-16.76 -1.22,-274.12 -1.23,-314.43 0,-51.5 -2.52,-28.01 7.83,-70.79 4.6,-19.04 16.81,-39.42 28.33,-48.38 7.89,-21.4 49.21,-36.94 73.09,-43.7 29.13,-8.24 52.65,-0.39 75.77,6.99 12.99,4.15 9.05,8.33 20.48,6.93 -0.3,-0.43 -0.72,-1.67 -0.86,-1.32 -2.19,5.4 1.44,-2.22 -6.56,-6.3 -5.34,-2.71 -7.9,-1.66 -13.33,-4.41 -8.77,-4.45 0.17,-6.41 -27.18,-7.22 -14.37,-0.42 -53.65,-1.7 -64.46,3.12 -6.63,2.96 -1.12,2.48 -10.17,5.48 -8.61,2.86 -4.66,-0.73 -12.58,4.53 -0.52,0.35 -1.9,1.54 -2.44,1.9l-2.78 1.75c-22.79,12.77 -39.07,28.9 -51.86,51.04 -11.41,19.77 -2.99,-3.39 -8.51,17.14 -3.88,14.42 -7.68,3.7 -8.64,26.16 -2.46,57.2 -0.59,148.85 -0.59,208.23 0,46 -0.1,92.01 -0.01,138.01 0.13,65.69 3.52,35.6 9.51,58.81 2.92,11.32 0.34,9.2 7.95,17.55l28.17 31.16 30.94 21.68c6.07,3.35 6.95,2.02 13.61,4.31 17.33,5.94 0.64,7.74 43.33,8.05 10.77,0.07 22.12,0.12 32.86,-0.34 4.64,-0.21 10.41,-0.65 14.2,-2.34 9.35,-4.17 -0.81,-2.57 12.04,-6.08 13.81,-3.78 1.79,1.97 16.25,-7.08l17.12 -11.21c7.54,-6.75 4.14,-0.05 7.83,-11.54z"/>
   <path class="fil5" d="M251.08 575.61c8.51,10.84 24.81,13.08 39.09,18.13 26.74,9.46 68.6,1.56 93.2,-11.84 8.45,-4.61 9.41,-3.94 16.69,-9.63 3.72,-2.91 4.42,-3.49 7.4,-5.63 5.95,-4.28 1.23,-2.04 8.91,-5.84 9.77,-3.27 26.2,-28.08 32.13,-38.23 0.42,-0.71 9.65,-26.17 9.97,-27.57 3.7,-15.93 3.52,-327.86 1.95,-370.23l-11.26 -43.24c-1.35,-3 -17.23,-31.45 -21.62,-32.99 -7.93,-3.67 -7.41,-5.72 -13.51,-10.91 -0.56,-0.48 -5.61,-4.71 -5.77,-4.81 -7.52,-4.53 -2.16,-1.49 -6.97,-2.12l23.15 27.33c23.53,24.28 20.02,36.76 25.77,53.29 2.45,7.04 4.53,9.29 5.43,20.18 3.03,36.7 0.43,216.69 0.43,262.81 0,33.62 3.23,71.8 -5.99,98.92 -2.73,8.03 -1.34,13.57 -5.53,20.96 -17.2,30.4 -17.69,30.02 -48.84,56.13 -7.41,6.22 2.11,1.11 -7.71,5.44 -21.49,9.47 -8.84,7.49 -29.84,10.26 -35.89,4.74 -15.29,15.44 -64.22,1.64 -6.76,-1.9 -14.64,-1.61 -21.38,-4.76 -11.1,-5.2 -1.67,-5.22 -21.48,-7.29z"/>
   <path class="fil6" d="M508.86 586.89c-5.28,5.69 -5.9,12.99 -11.73,15.69 -5.88,12.61 -39.37,43.34 -52.12,45.39 -2.1,2.32 1.22,0.37 -4.97,3.89 -3.59,2.05 -3.91,1.98 -7.12,3.96 -6.02,3.71 -6.13,4.19 -13.59,4.55 -2.02,2.23 -1.1,1.58 -3.91,3.79 -5.72,4.51 -7.85,3.4 -13.45,6.5l-5.21 3.65c36.64,-6.46 17.37,-6.31 31.2,-10.74 4.13,-1.32 8.67,-1.32 12.98,-1.7 2.7,-8.04 0.16,-6.56 9.67,-8.54 4.09,-6.97 2.14,-4.81 9.21,-7.48l22.09 -17.66c2.31,-2.03 3.08,-2.41 4.77,-4.09l16.95 -18.17c2.45,-2.78 1.35,-1.9 3.79,-4.85l20.04 -30.7c0.23,-0.38 0.6,-0.9 0.84,-1.28l23.7 -72.32c0.79,-10.96 -0.51,-22.67 1.9,-33.26l81.87 -0.65c3.65,21.11 -11.15,48.12 -4.55,66.69l2.05 -4.41c1.66,-4.87 -0.41,1.92 0.98,-3.53 4.36,-16.97 10.23,-46.39 3.31,-61.6 -12.38,-0.91 -78.72,-3.72 -84.91,2.18 -4.85,4.62 -6.96,47.74 -13.74,69.13 -4.05,12.81 -16.78,42.69 -27.04,52.95 -0.33,0.33 -1.23,1.72 -1.48,1.31 -0.25,-0.43 -0.98,0.92 -1.53,1.3z"/>
   <path class="fil7" d="M508.86 586.89c0.55,-0.38 1.28,-1.73 1.53,-1.3 0.25,0.41 1.15,-0.98 1.48,-1.31 10.26,-10.26 22.99,-40.14 27.04,-52.95 6.78,-21.39 8.89,-64.51 13.74,-69.13 6.19,-5.9 72.53,-3.09 84.91,-2.18 6.92,15.21 1.05,44.63 -3.31,61.6 -1.39,5.45 0.68,-1.34 -0.98,3.53l-2.05 4.41c2.62,13.51 -1.64,18.7 -5.83,29.77l-10.71 25.31c-0.44,0.39 -1.21,0.88 -1.8,1.34l1.02 1.11c-0.49,9.52 -0.51,8.09 -4.57,14.96 -1.59,2.72 -1.78,3.62 -3.06,5.72 -4.45,7.27 -0.9,2.35 -3.89,4.7 0.95,12.41 -5.3,4.07 -5.84,18.47l3.78 -2.89c6.81,-6.07 24.21,-46.56 25.14,-51.59 3.61,-19.62 4.98,-8.88 8.2,-19.32 2.52,-8.19 -0.68,-14.84 3.3,-23.89 4.33,-9.82 5.92,-3.7 6.42,-20.5 0.39,-12.88 5.68,-45.58 -2.14,-53.75 -5.19,-4.68 -86.4,-4.75 -91.84,-0.13 -4.92,4.97 -3.18,8.24 -4.13,16.48 -1.31,11.33 -2.6,7.76 -4.77,16.04 -3.14,11.97 -0.75,27.52 -5.63,36.71 -10.77,20.3 -1.39,8.57 -12.42,28.89 -2.79,5.13 -3.6,10.84 -5.81,14.16 -4.22,6.32 -4.65,-0.8 -7.78,15.74z"/>
   <path class="fil8" d="M275.71 779.7c1.34,24.42 -3.22,120.37 2.2,134.8 9.93,4.86 78.15,4.46 88.55,0.06 5.89,-17.62 -0.78,-108.19 2.37,-136.96l-2.52 0.06 -1.41 3.64 -0.69 132.04c-16.54,0.15 -71.77,2.15 -84.53,-1.22l-0.3 -130.32 -1.74 -6.68 -2.08 0.23 0.15 4.35z"/>
   <path class="fil9" d="M18.54 567.25l3.82 -1.73c2.02,-19.3 -5.45,-10.17 -9.89,-48.72 -1.5,-13.01 -8.76,-32.92 -6.26,-53.5 9.93,-2.8 75.15,-2.76 85.28,-0.05 3.92,32.35 -4.84,46.26 11.14,53.83 0.87,-10.96 -4.32,-17.98 -5.45,-27.02 -1.31,-10.38 0.73,-19.2 -3.48,-29.09 -11.3,-4.4 -71.94,-2.41 -88.87,-1.78 -8.69,4.43 -3.4,46.68 -1.39,57.47 2.07,11.15 5.76,10.95 7.41,24.78 0.63,5.25 0.48,8.81 2.31,13.6 4.35,11.33 3.89,-0.57 5.38,12.21z"/>
   <path class="fil10" d="M275.71 779.7l-2.63 0 0.12 2.15c0.14,18.07 -2.87,128.82 2.56,134.59 6.38,6.75 87.27,3.05 93.4,1.88 3.77,-12.52 3.73,-124.44 2.03,-139.95l-2.36 -0.77c-3.15,28.77 3.52,119.34 -2.37,136.96 -10.4,4.4 -78.62,4.8 -88.55,-0.06 -5.42,-14.43 -0.86,-110.38 -2.2,-134.8z"/>
   <path class="fil11" d="M399.33 667.01c-5.84,1.07 -8.91,1.44 -14.33,4.1 -30.04,14.69 -86.28,4.35 -119.18,5.58 2.93,2.5 1.88,2.28 7.18,4.41 13.29,5.33 46.47,7.74 60.68,6.96 13.08,-0.73 22.94,-3.57 33.48,-5.89 6.2,-1.37 11.08,-1.63 16.8,-3.07 6.83,-1.72 7.13,-3.23 12.8,-4.79l5.21 -3.65c5.6,-3.1 7.73,-1.99 13.45,-6.5 2.81,-2.21 1.89,-1.56 3.91,-3.79 -11.81,2.52 -4.38,4.47 -20,6.64z"/>
   <path class="fil6" d="M100.2 685.26l15.06 14.23c2.8,5.35 4.6,5.03 10.78,9.66 1.03,0.77 5.23,4.24 6.02,5.07 3.37,3.54 1.82,1.49 3.52,5.16 4.75,1.32 9,4.17 14.52,7.46l18.72 11.71c10.52,7.05 6.99,3.2 14.71,6.98 6.27,3.07 1.42,1.06 5.58,3.42l29.37 12.26c15.26,4.2 18.33,8.99 34.05,9.29 -17.04,-14.04 -21.01,-9.88 -32.64,-13.53 -10.85,-3.41 0.97,-0.52 -9.66,-5.37l-19.9 -8.67c-4.25,-2.2 -20.8,-7.81 -28.87,-14.37 -5.66,-4.6 -1.47,-1.96 -8.86,-6.7l-29.08 -21.03c-0.08,-0.07 -4,-3.97 -4.41,-4.36l-7.68 -7.72c-5.4,-5.37 -4.53,0.24 -6.32,-8.81 -3.53,0 -2.36,0.81 -3.12,-2.88l-4.03 -0.86 2.24 9.06z"/>
   <path class="fil12" d="M223.19 49.5c10.49,-3.05 10.4,-6.96 18.17,-12.82 12.65,-9.55 9.34,-8.57 18.73,-12.28 13.54,-5.34 6.11,-7.45 20.84,-9.44 17.85,-2.43 10.89,-1.26 23.8,-6.06 23.53,-8.73 35.38,2.55 51.72,5.05 19.21,2.93 10.16,0.93 23.19,7.98 4.38,2.37 6.06,2.34 10.59,5.14 6.83,4.24 0.42,5.31 11.06,3.63 -1.48,-2.77 -0.15,-1.06 -2.49,-3.93l-5.3 -5.7c-0.16,-0.74 -0.65,-0.89 -0.97,-1.35 -11.43,1.4 -7.49,-2.78 -20.48,-6.93 -23.12,-7.38 -46.64,-15.23 -75.77,-6.99 -23.88,6.76 -65.2,22.3 -73.09,43.7z"/>
   <path class="fil13" d="M273.2 781.85l-0.12 -2.15c-3.33,-2.25 1.78,-0.1 -4.68,-2.77 -3.35,-1.38 -1.23,-0.26 -4.74,-1.46 -1.05,-0.36 -4.07,-1.28 -4.95,-1.76 -3.71,-2.04 -2.8,-1.9 -4.96,-3.86l-1.22 0.65c-15.72,-0.3 -18.79,-5.09 -34.05,-9.29l-29.37 -12.26c-4.16,-2.36 0.69,-0.35 -5.58,-3.42 -7.72,-3.78 -4.19,0.07 -14.71,-6.98l-18.72 -11.71c-5.52,-3.29 -9.77,-6.14 -14.52,-7.46 0.85,8.71 0.14,4.21 5.35,7.94l16.16 9.97c7.65,3.53 2.53,1.09 6.62,4.48l34.66 16.06c4.68,2.71 -0.59,2.29 6.99,4.96 3.6,1.27 7.54,1.02 11.88,2.27 9.01,2.6 6.21,5.48 16.13,7.52 34.74,7.12 10.6,7.84 39.83,9.27z"/>
   <path class="fil14" d="M55.45 635.26l-0.46 -1.88c4.44,3.6 0.87,-1.23 5.67,5.46 2.91,4.06 1.22,2.1 2.58,6.2 3.2,1.82 0.83,-0.13 3.88,2.79l6.89 8.15c5.22,6.13 6.03,5.81 8.83,13.2l-0.28 -0.35c2.53,1.88 1.73,0.98 5.12,4.2 1.58,1.5 2.63,2.73 4.37,4.55 2.16,2.25 5.12,5.76 8.15,7.68l-2.24 -9.06c-31.4,-38.41 -15.35,-14.97 -41.85,-52.54 -15.52,-22 -9.71,-17.3 -16.24,-30.16 -4.79,-9.44 -3.24,-1.66 -7.85,-15.98 -1.74,-5.42 -1.96,-7.63 -9.66,-12 0.55,16.89 20.2,43.86 28.98,60.54l3.33 7c0.18,-0.37 0.54,1.46 0.78,2.2z"/>
   <path class="fil15" d="M102.63 517.08l-1.66 2.69 3.34 5.11c1.24,2.41 1.18,3.08 2.66,6.08 4.12,8.34 10.19,27.02 17.54,32.64 1.35,-6.66 1.41,-6.78 -2.09,-12.4 -5.34,-8.55 -3.29,1.5 -6.21,-10.45 -5.32,-21.79 -7.16,-8.73 -9.42,-25.63 -1.22,-9.08 0.07,-21.06 -3.32,-29.13 -2.38,-5.64 -3.69,-2.46 -5.18,-12.84 -1.59,-11.02 2.65,-15.16 -9.91,-16.99 -2.87,-0.42 -10,-0.13 -13.25,-0.1l-65.44 0.57c-5.4,1.53 -1.48,-0.25 -4.86,2.56 16.93,-0.63 77.57,-2.62 88.87,1.78 4.21,9.89 2.17,18.71 3.48,29.09 1.13,9.04 6.32,16.06 5.45,27.02z"/>
   <path class="fil16" d="M365.45 774.67l0.86 2.99 2.52 -0.06 2.36 0.77 0.37 -5.8c12.89,-1.76 32.35,-2.86 42.34,-7.04 5.93,-2.49 32.4,-10.81 37.98,-11.87l-0.72 1.14c5.08,-5.43 33.33,-20.55 38.91,-22.05l-1.23 -1.35c-12.25,-2.16 -6.8,-0.18 -16.05,5.95l-41.46 19.08c-7.32,2.49 -13.09,1.52 -20.09,3.07 -10.29,2.29 -5.54,3.6 -12.67,6.07 -12.33,4.27 -31.14,-2.75 -33.12,9.1z"/>
   <path class="fil17" d="M101.99 677.06c0.76,3.69 -0.41,2.88 3.12,2.88 2.74,-8.73 0.49,-3.43 10.2,-13.29l17.4 -17.87c3.62,-3.22 4.54,-3.15 7.12,-5.77l21.06 -23.15 -2.77 -1.01c-11.5,3.69 -22.93,17.6 -31,26.81 -8.64,9.85 -23.38,18.56 -25.13,31.4z"/>
   <path class="fil18" d="M279.38 781.8l85.52 -0.5 1.41 -3.64 -0.86 -2.99c-14.51,-0.2 -27.24,2.59 -42.81,2.72 -15.55,0.13 -31.67,-2.85 -45,-2.27l1.74 6.68z"/>
   <path class="fil11" d="M565.81 665.96c-2.15,4.81 2.03,0.17 -3.37,5.49 -4.74,4.65 -1.97,1.61 -6.7,4.28 -2.76,5.27 -3.14,2.07 -5.28,7.65 -4.75,7.04 -5.78,7.84 -12.86,11.17l0.72 -0.66 -6.05 6.59c-3.38,3.15 -2.41,2.1 -5.97,4.73 -6,4.44 -7.63,7.63 -15.04,9.14 -2.54,9.6 2.51,-1.7 -1.95,4.58 -1.89,2.66 -0.9,0.03 -4.83,5.49 5.55,-2.15 7.65,-3.69 12,-6.94 5.97,-4.45 5.3,-4.58 11.44,-7.78 7.75,-4.71 4.74,-4.03 11.21,-9.18 3.96,-3.16 8.99,-6.22 10.51,-7.12l12.65 -14.7c0.45,-0.32 1.22,-0.76 1.82,-1.14 2.05,-5.77 8.97,-12.26 14.3,-15.98l0.07 -7.24 -2.75 1.95c-0.28,0.29 -0.82,0.81 -1.11,1.15 -13.8,16.13 1.09,4.32 -8.81,8.52z"/>
   <path class="fil19" d="M154.72 608.04l-16.03 -21.51c-4.82,-7.29 -12.18,-14.51 -14.18,-22.93 -7.35,-5.62 -13.42,-24.3 -17.54,-32.64 -1.48,-3 -1.42,-3.67 -2.66,-6.08l-3.34 -5.11c-1.01,17.97 3.06,14.76 7.64,26.56 2.2,5.68 1.16,5.98 4.67,11.23 15.2,22.68 -1.38,5.3 21.06,31.46 0.28,0.33 0.74,0.78 1.02,1.12l19.36 17.9z"/>
   <path class="fil20" d="M371.19 778.37c0.78,0 42.39,-6.63 45.3,-7.51 8.56,-2.57 4.2,-4.79 18.63,-7.21 8.81,-1.48 14.37,-1.54 16.76,-9.99 -5.58,1.06 -32.05,9.38 -37.98,11.87 -9.99,4.18 -29.45,5.28 -42.34,7.04l-0.37 5.8z"/>
   <path class="fil21" d="M445.01 647.97c12.75,-2.05 46.24,-32.78 52.12,-45.39l4.84 -6.94c-10.47,2.12 -8.9,8.56 -28.43,26.28l-21.65 17.71c-6.36,4.31 -4.46,-0.43 -6.88,8.34z"/>
   <path class="fil22" d="M55.45 635.26c-0.24,-0.74 -0.6,-2.57 -0.78,-2.2l-3.33 -7c-8.78,-16.68 -28.43,-43.65 -28.98,-60.54l-3.82 1.73c-0.61,10.77 1.48,11.3 5.46,17.95 7.13,11.87 -0.34,8.06 10.37,22.33 7.59,10.11 8.71,23.96 21.08,27.73z"/>
   <path class="fil23" d="M154.72 608.04l1.06 1.23 15.7 12.25c-2.55,-10.43 -14.45,-20.29 -22.27,-29.74 -3.73,-4.52 -7.79,-10.33 -11.52,-14.59l-2.02 -2.18c-0.26,-0.34 -0.64,-0.86 -0.89,-1.22 -1.12,-1.6 -1.67,-3.24 -2.39,-4.23 -4.17,-5.72 -0.13,-2.65 -7.88,-5.96 2,8.42 9.36,15.64 14.18,22.93l16.03 21.51z"/>
   <path class="fil24" d="M135.58 719.38c-1.7,-3.67 -0.15,-1.62 -3.52,-5.16 -0.79,-0.83 -4.99,-4.3 -6.02,-5.07 -6.18,-4.63 -7.98,-4.31 -10.78,-9.66 -7.64,-3.97 -10.31,-6.92 -15.06,-14.23 -3.03,-1.92 -5.99,-5.43 -8.15,-7.68 -1.74,-1.82 -2.79,-3.05 -4.37,-4.55 -3.39,-3.22 -2.59,-2.32 -5.12,-4.2l-0.03 4.23 11.16 13.67c3.61,3.94 3.07,2.51 6.9,6.36l11.88 12.31c5.84,5.86 14.95,13.58 23.11,13.98z"/>
   <path class="fil25" d="M583.32 637.99c-2.88,7.29 -1.56,5.55 -9.07,11.64 -1.99,8.29 -2.32,6.14 -7.99,9.9l-0.45 6.43c9.9,-4.2 -4.99,7.61 8.81,-8.52 0.29,-0.34 0.83,-0.86 1.11,-1.15l2.75 -1.95c2.39,-7.2 3.6,-5.1 7.51,-12 1.57,-2.78 2.07,-5.05 3.83,-7.16 5.83,-7.01 3.39,-2.99 6.72,-4.24 0.54,-14.4 6.79,-6.06 5.84,-18.47 -2.82,1.29 -1.53,-1.97 -6.65,4.87 -2.28,3.04 -1.78,3.99 -3.44,7.32 -4.26,8.58 -5.14,3.74 -8.97,13.33z"/>
   <path class="fil26" d="M504.48 724.42c-8.97,4.44 -7.92,8.68 -15.64,6.98l1.23 1.35 -3.94 4.61c-0.05,0.05 -4.65,3.64 -4.92,3.81l-10.53 6.43c21.1,-2.5 9.52,-4.66 24.09,-10.96 16.84,-7.29 14.2,-12.02 30.97,-20.28l2.18 -6.66c-6.14,3.2 -5.47,3.33 -11.44,7.78 -4.35,3.25 -6.45,4.79 -12,6.94z"/>
   <path class="fil27" d="M262.28 678.15c-2.62,-10.8 -18.06,-9.44 -28.32,-12.39 -7.18,-2.4 -3.23,0.23 -10.08,-6.49l-4.38 2.29c6.51,4.76 5.65,4.34 11.14,9.64 5.86,0.77 10.93,1.4 16.55,3.33 8.78,3.03 4.96,3.21 15.09,3.62z"/>
   <path class="fil20" d="M219.5 661.56l4.38 -2.29c6.85,6.72 2.9,4.09 10.08,6.49 -1.48,-7.98 -6.08,-5.67 -12.89,-10.14 -5.86,-3.85 -4.62,-4.43 -12.62,-7.31 -6.27,-2.96 -1.9,0.11 -6.85,-3.69 -8.07,-6.19 -0.31,0.39 -4.8,-5.51l-7.63 0.43c5.33,7.75 19.32,14.11 30.33,22.02z"/>
   <path class="fil28" d="M612.88 585.98c0.59,-0.46 1.36,-0.95 1.8,-1.34l10.71 -25.31c4.19,-11.07 8.45,-16.26 5.83,-29.77l-5.03 13.25c-9.78,20.43 -3.03,15.38 -8,26.58 -3.79,8.55 -5.06,3.83 -5.31,16.59z"/>
   <path class="fil29" d="M219.5 661.56c-11.01,-7.91 -25,-14.27 -30.33,-22.02 -0.61,-0.1 -1.39,-0.18 -1.84,-0.3 -0.47,-0.13 -1.43,-0.38 -1.91,-0.52 -0.53,-0.16 -3.41,-1.49 -4.05,-1.85l1.28 6.89 24.51 15.11c6.46,4.57 3.48,6.01 12.34,2.69z"/>
   <path class="fil13" d="M399.33 667.01c15.62,-2.17 8.19,-4.12 20,-6.64 7.46,-0.36 7.57,-0.84 13.59,-4.55 3.21,-1.98 3.53,-1.91 7.12,-3.96 6.19,-3.52 2.87,-1.57 4.97,-3.89 -15.85,-2.43 -21.13,6.79 -22.73,7.7 -3.8,2.14 -7.84,1.99 -12.11,3.73l-9.35 6.37c-0.35,0.29 -0.99,0.84 -1.49,1.24z"/>
   <path class="fil30" d="M401.29 30.7c4.81,0.63 -0.55,-2.41 6.97,2.12 0.16,0.1 5.21,4.33 5.77,4.81 6.1,5.19 5.58,7.24 13.51,10.91 -5.37,-10.63 -6.41,-9.01 -12.82,-15.74 -4.82,-5.05 -9.47,-7.73 -14.6,-13.5l-7.59 0.42c0.32,0.46 0.81,0.61 0.97,1.35l5.3 5.7c2.34,2.87 1.01,1.16 2.49,3.93z"/>
   <path class="fil11" d="M451.16 754.8c11.72,-0.74 13.6,-2.63 19.52,-7.2l10.53 -6.43c0.27,-0.17 4.87,-3.76 4.92,-3.81l3.94 -4.61c-5.58,1.5 -33.83,16.62 -38.91,22.05z"/>
   <path class="fil31" d="M578.48 654.34c6.16,-1.13 -0.25,3.1 6.43,-2.15 2.97,-2.32 2.42,-3.02 4.53,-6.81 5.49,-9.88 6.48,-4.81 7.1,-14.44 -3.33,1.25 -0.89,-2.77 -6.72,4.24 -1.76,2.11 -2.26,4.38 -3.83,7.16 -3.91,6.9 -5.12,4.8 -7.51,12z"/>
   <path class="fil29" d="M511.26 714.35c7.41,-1.51 9.04,-4.7 15.04,-9.14 3.56,-2.63 2.59,-1.58 5.97,-4.73l6.05 -6.59c-7.42,0.57 -19.16,9.47 -24.35,16.22l-2.71 4.24z"/>
   <path class="fil32" d="M72.88 662.47c0.5,0.39 1.16,0.4 1.44,1.25 0.32,0.96 2.67,2.12 3.04,2.36 4.6,3.04 -2.56,-0.66 5.48,3.1 -2.8,-7.39 -3.61,-7.07 -8.83,-13.2l-6.89 -8.15c-3.05,-2.92 -0.68,-0.97 -3.88,-2.79 1.43,11.73 4.91,10.96 9.64,17.43z"/>
   <path class="fil33" d="M181.37 636.87c0.64,0.36 3.52,1.69 4.05,1.85 0.48,0.14 1.44,0.39 1.91,0.52 0.45,0.12 1.23,0.2 1.84,0.3l-0.57 -6.1c-2.97,-1.66 -5.1,-2.44 -8.09,-5 -5.21,-4.47 0.2,-2.4 -8.42,-6.2l-0.02 5.29c4.49,5.12 3.91,4.94 9.3,9.34z"/>
   <path class="fil25" d="M602.38 612.47c2.99,-2.35 -0.56,2.57 3.89,-4.7 1.28,-2.1 1.47,-3 3.06,-5.72 4.06,-6.87 4.08,-5.44 4.57,-14.96l-3.02 3.19c-7.05,8.3 -9.86,11.39 -8.5,22.19z"/>
   <path class="fil34" d="M158.12 618.85l2.77 1.01c5.06,6.3 2.76,5.41 11.18,7.67l0.02 -5.29 -0.61 -0.72 -15.7 -12.25 2.34 9.58z"/>
   <path class="fil35" d="M273.08 779.7l2.63 0 -0.15 -4.35c-0.02,-0.02 -1.52,-3.7 -2.65,-4.6l-19.16 -0.9c2.16,1.96 1.25,1.82 4.96,3.86 0.88,0.48 3.9,1.4 4.95,1.76 3.51,1.2 1.39,0.08 4.74,1.46 6.46,2.67 1.35,0.52 4.68,2.77z"/>
   <path class="fil36" d="M488.84 731.4c7.72,1.7 6.67,-2.54 15.64,-6.98 3.93,-5.46 2.94,-2.83 4.83,-5.49 4.46,-6.28 -0.59,5.02 1.95,-4.58l-22.42 17.05z"/>
   <path class="fil37" d="M549.64 693.4c11.24,-5.04 10.64,-4.1 14.47,-15.84 -0.6,0.38 -1.37,0.82 -1.82,1.14l-12.65 14.7z"/>
   <path class="fil38" d="M82.53 673.06l0.03 -4.23 0.28 0.35c-8.04,-3.76 -0.88,-0.06 -5.48,-3.1 -0.37,-0.24 -2.72,-1.4 -3.04,-2.36 -0.28,-0.85 -0.94,-0.86 -1.44,-1.25l1.42 8.62 8.23 1.97z"/>
   <path class="fil39" d="M537.6 694.55c7.08,-3.33 8.11,-4.13 12.86,-11.17 -8.84,3.28 -8.68,1.21 -12.86,11.17z"/>
   <path class="fil40" d="M63.24 645.04c-1.36,-4.1 0.33,-2.14 -2.58,-6.2 -4.8,-6.69 -1.23,-1.86 -5.67,-5.46l1.61 9.59 6.64 2.07z"/>
   <path class="fil41" d="M555.74 675.73c4.73,-2.67 1.96,0.37 6.7,-4.28 5.4,-5.32 1.22,-0.68 3.37,-5.49 -8.17,0.9 -7.68,1.76 -10.07,9.77z"/>
   <path class="fil37" d="M208.45 648.31l-3.74 -8.04 -7.91 -1.16c4.49,5.9 -3.27,-0.68 4.8,5.51 4.95,3.8 0.58,0.73 6.85,3.69z"/>
   <path class="fil42" d="M574.25 649.63c7.51,-6.09 6.19,-4.35 9.07,-11.64l-7.83 3.54 -1.24 8.1z"/>
   <path class="fil43" d="M450.61 653.33l7.34 -1.1 1.87 -6.38c-7.07,2.67 -5.12,0.51 -9.21,7.48z"/>
   <path class="fil44" d="M115.26 699.49l-15.06 -14.23c4.75,7.31 7.42,10.26 15.06,14.23z"/>
  </g>
 </g>
</svg>
