<?xml version="1.0" encoding="UTF-8"?>
<!DOCTYPE svg PUBLIC "-//W3C//DTD SVG 1.1//EN" "http://www.w3.org/Graphics/SVG/1.1/DTD/svg11.dtd">
<!-- Creator: CorelDRAW 2020 (64-Bit) -->
<svg xmlns="http://www.w3.org/2000/svg" xml:space="preserve" width="325px" height="326px" version="1.1" style="shape-rendering:geometricPrecision; text-rendering:geometricPrecision; image-rendering:optimizeQuality; fill-rule:evenodd; clip-rule:evenodd"
viewBox="0 0 88.72 89.12"
 xmlns:xlink="http://www.w3.org/1999/xlink"
 xmlns:xodm="http://www.corel.com/coreldraw/odm/2003">
 <defs>
  <style type="text/css">
   <![CDATA[
    .fil0 {fill:black}
   ]]>
  </style>
 </defs>
 <g id="Capa_x0020_1">
  <metadata id="CorelCorpID_0Corel-Layer"/>
  <path class="fil0" d="M21.61 73c0,-6.08 15.53,-28.08 37.58,-12.56 2.51,1.77 7.92,8.71 7.92,12.56 0,2.98 -18.24,13.55 -35.97,6.4 -2.45,-0.99 -9.53,-4.13 -9.53,-6.4zm12.51 -35.26c0,-13.07 20.48,-13.07 20.48,0 0,13.06 -20.48,13.06 -20.48,0zm-6.82 -2.28c0,8.31 -0.15,7.78 4.55,14.79 -6.74,3.57 -14.05,9.02 -15.93,17.06 -17.29,-11.58 -9.62,-60.29 28.44,-60.29 13.54,0 26.79,8.23 33.01,20.46 7.04,13.84 4.27,33.91 -4.57,39.83 -1.87,-8 -9.19,-13.5 -15.93,-17.06 9.75,-14.56 3.97,-29.57 -14.78,-29.57 -6.98,0 -14.79,7.81 -14.79,14.78zm-27.3 5.69c0,14.64 2.26,24.47 12.78,34.99 28.75,28.75 75.94,5.47 75.94,-28.17 0,-14.64 -2.25,-24.46 -12.78,-34.99 -28.74,-28.74 -75.94,-5.47 -75.94,28.17z"/>
 </g>
</svg>
